<svg width="32" height="25" viewBox="0 0 32 25" fill="none" xmlns="http://www.w3.org/2000/svg">
<path d="M31.3489 4.13532V22.3033C31.3489 23.4841 30.3928 24.4403 29.212 24.4403H24.2236V12.3291L15.6745 18.7426L7.12535 12.3291V24.4416H2.13695C1.85621 24.4416 1.57823 24.3863 1.31887 24.2788C1.05952 24.1713 0.823888 24.0138 0.625437 23.8152C0.426986 23.6167 0.269606 23.3809 0.162291 23.1215C0.0549761 22.8621 -0.000171201 22.5841 3.99244e-07 22.3033V4.13532C3.99244e-07 1.49287 3.01603 -0.0157994 5.12947 1.56993L7.12535 3.06815L15.6745 9.47901L24.2236 3.06554L26.2195 1.56993C28.3316 -0.0144933 31.3489 1.49287 31.3489 4.13532Z" fill="#AE27EE"/>
</svg>
