<svg width="22" height="32" viewBox="0 0 22 32" fill="none" xmlns="http://www.w3.org/2000/svg">
<path d="M10.9721 14.8907C9.93284 14.8907 8.93613 14.4779 8.20124 13.743C7.46636 13.0081 7.05351 12.0114 7.05351 10.9721C7.05351 9.93284 7.46636 8.93613 8.20124 8.20124C8.93613 7.46636 9.93284 7.05351 10.9721 7.05351C12.0114 7.05351 13.0081 7.46636 13.743 8.20124C14.4779 8.93613 14.8907 9.93284 14.8907 10.9721C14.8907 11.4867 14.7894 11.9963 14.5925 12.4717C14.3955 12.9471 14.1069 13.3791 13.743 13.743C13.3791 14.1069 12.9471 14.3955 12.4717 14.5925C11.9963 14.7894 11.4867 14.8907 10.9721 14.8907ZM10.9721 0C8.06213 0 5.27133 1.15599 3.21366 3.21366C1.15599 5.27133 0 8.06214 0 10.9721C0 19.2012 10.9721 31.3489 10.9721 31.3489C10.9721 31.3489 21.9442 19.2012 21.9442 10.9721C21.9442 8.06214 20.7883 5.27133 18.7306 3.21366C16.6729 1.15599 13.8821 0 10.9721 0Z" fill="#AE27EE"/>
</svg>
