<svg width="26" height="25" viewBox="0 0 26 25" fill="none" xmlns="http://www.w3.org/2000/svg">
<path d="M25.3951 18.6354C25.1768 20.2947 24.3619 21.8178 23.1026 22.9202C21.8434 24.0227 20.2259 24.629 18.5522 24.626C8.82917 24.626 0.918468 16.7153 0.918468 6.99222C0.915468 5.31859 1.5218 3.7011 2.62421 2.44184C3.72662 1.18259 5.24973 0.367683 6.90905 0.149335C7.32865 0.0980999 7.75357 0.183943 8.12038 0.39405C8.48718 0.604157 8.7762 0.927259 8.94428 1.31512L11.5306 7.08896V7.10365C11.6593 7.40055 11.7124 7.7247 11.6853 8.04715C11.6581 8.3696 11.5515 8.68031 11.375 8.95152C11.353 8.98459 11.3297 9.0152 11.3052 9.04582L8.7557 12.068C9.6729 13.9318 11.6224 15.8642 13.5107 16.7839L16.4913 14.2478C16.5205 14.2231 16.5512 14.2002 16.5831 14.1792C16.8541 13.9985 17.1659 13.8881 17.4903 13.8582C17.8146 13.8283 18.1413 13.8797 18.4408 14.0078L18.4567 14.0151L24.2257 16.6002C24.6142 16.7677 24.9381 17.0564 25.1489 17.4233C25.3597 17.7901 25.4461 18.2154 25.3951 18.6354Z" fill="#AE27EE"/>
</svg>
