<svg width="29" height="33" viewBox="0 0 29 33" fill="none" xmlns="http://www.w3.org/2000/svg">
<path d="M19.8224 24.3086C20.1228 21.8543 18.5423 20.2894 14.369 18.9571C12.347 18.2674 11.3948 17.3635 11.417 16.1213C11.5019 14.742 12.7859 13.7375 14.4892 13.7049C15.8306 13.7193 17.1389 14.1232 18.255 14.8674C18.4065 14.9614 18.5123 14.9458 18.5985 14.8151C18.7161 14.627 19.01 14.1712 19.1079 14.0053C19.1745 13.9008 19.1876 13.7623 19.0191 13.6396C18.7775 13.4606 18.0995 13.0975 17.7351 12.9447C16.6972 12.5054 15.5822 12.2772 14.4552 12.2733C11.9604 12.2837 9.99714 13.8603 9.83126 15.9646C9.72502 17.485 10.4783 18.7159 12.091 19.6572C12.4345 19.8558 14.2854 20.5925 15.0221 20.8224C17.3393 21.5434 18.5423 22.8365 18.2589 24.3452C18.0016 25.7128 16.5621 26.5971 14.578 26.6232C13.0066 26.5631 11.5907 25.9218 10.4935 25.0688L10.3093 24.9252C10.1735 24.8207 10.0246 24.8272 9.93445 24.9644C9.86914 25.0649 9.44331 25.6788 9.3362 25.8395C9.23563 25.9806 9.29049 26.059 9.39498 26.1452C9.85216 26.5279 10.4622 26.9459 10.8762 27.1575C12.0231 27.7419 13.2849 28.0662 14.5715 28.1071C15.4978 28.1511 16.4226 27.9933 17.2819 27.6447C18.7121 27.0373 19.6369 25.8238 19.8224 24.3086ZM14.6747 2.67527C11.9734 2.67527 9.77117 5.22237 9.66798 8.40951H19.68C19.5742 5.22106 17.3733 2.67396 14.6747 2.67396M24.9297 32.1916L24.8252 32.1929L4.20804 32.1903C2.80518 32.138 1.77458 31.0016 1.63351 29.5896L1.62045 29.3349L0.696964 9.05477C0.690911 8.9733 0.701536 8.89145 0.728188 8.81423C0.754841 8.737 0.796963 8.66602 0.851978 8.60563C0.906993 8.54523 0.973746 8.49669 1.04816 8.46297C1.12257 8.42925 1.20308 8.41106 1.28476 8.40951H7.78313C7.94118 4.19961 10.965 0.845276 14.6747 0.845276C18.3843 0.845276 21.4055 4.20092 21.5649 8.4082H28.0541C28.1354 8.40845 28.2158 8.42519 28.2904 8.45741C28.365 8.48962 28.4323 8.53664 28.4883 8.59562C28.5442 8.6546 28.5876 8.72431 28.6158 8.80054C28.644 8.87677 28.6564 8.95792 28.6524 9.0391L27.6427 29.4002L27.6335 29.5713C27.5107 31.0003 26.3547 32.1537 24.9297 32.1916Z" fill="#AE27EE"/>
</svg>
